<?xml version="1.0" standalone="no"?><!-- Generator: Gravit.io --><svg class = "icon" xmlns="http://www.w3.org/2000/svg" xmlns:xlink="http://www.w3.org/1999/xlink" style="isolation:isolate" viewBox="-495 935 150 150" width="150" height="150"><title>send me an email</title><g id="Group"><path d=" M -495 935 L -345 935 L -345 1085 L -495 1085 L -495 935 Z " fill="none"/><path d=" M -370 960 L -470 960 C -476.875 960 -482.437 965.625 -482.437 972.5 L -482.5 1047.5 C -482.5 1054.375 -476.875 1060 -470 1060 L -370 1060 C -363.125 1060 -357.5 1054.375 -357.5 1047.5 L -357.5 972.5 C -357.5 965.625 -363.125 960 -370 960 Z  M -370 1047.5 L -470 1047.5 L -470 985 L -420 1016.25 L -370 985 L -370 1047.5 Z  M -420 1003.75 L -470 972.5 L -370 972.5 L -420 1003.75 Z " fill="rgb(222,222,186)"/></g>
</svg>
