<?xml version="1.0" standalone="no"?><!-- Generator: Gravit.io --><svg class = "icon" xmlns="http://www.w3.org/2000/svg" xmlns:xlink="http://www.w3.org/1999/xlink" style="isolation:isolate" viewBox="-905 915 150 150" width="150" height="150"><title>go to my linkedin page</title><path d=" M -884.715 915 C -895.85 915 -905 924.15 -905 935.285 L -905 1044.762 C -905 1055.85 -895.85 1065 -884.715 1065 L -775.238 1065 C -764.15 1065 -755 1055.85 -755 1044.762 L -755 935.285 C -755 924.15 -764.15 915 -775.238 915 L -884.715 915 Z  M -884.715 926.538 L -775.238 926.538 C -770.369 926.538 -766.538 930.369 -766.538 935.285 L -766.538 1044.762 C -766.517 1047.076 -767.426 1049.301 -769.063 1050.937 C -770.699 1052.574 -772.924 1053.483 -775.238 1053.462 L -884.715 1053.462 C -887.036 1053.493 -889.272 1052.588 -890.918 1050.951 C -892.563 1049.314 -893.48 1047.083 -893.462 1044.762 L -893.462 935.285 C -893.462 930.369 -889.631 926.538 -884.715 926.538 Z  M -870.385 938.077 C -876.731 938.077 -881.923 943.269 -881.923 949.615 C -881.923 955.962 -876.731 961.154 -870.385 961.154 C -864.038 961.154 -858.846 955.962 -858.846 949.615 C -858.846 943.269 -864.038 938.077 -870.385 938.077 Z  M -881.923 972.692 L -881.923 1041.923 L -858.846 1041.923 L -858.846 972.692 L -881.923 972.692 Z  M -847.308 972.692 L -847.308 1041.923 L -824.231 1041.923 L -824.231 1011 C -824.231 1001.4 -823.331 992.792 -811.792 992.792 C -800.427 992.792 -801.154 1003.119 -801.154 1011.635 L -801.154 1041.923 L -778.077 1041.923 L -778.077 1007.769 C -778.077 987.923 -782.231 972.692 -804.719 972.692 C -815.531 972.692 -820.988 977.019 -823.965 982.788 L -824.231 982.788 L -824.231 972.692 L -847.308 972.692 Z " fill="rgb(222,222,186)"/>
</svg>
