<?xml version="1.0" standalone="no"?><!-- Generator: Gravit.io --><svg xmlns="http://www.w3.org/2000/svg" xmlns:xlink="http://www.w3.org/1999/xlink" style="isolation:isolate" viewBox="-835 645 150 150" width="150" height="150"><path d=" M -805 645 C -821.536 645 -835 658.464 -835 675 L -835 765 C -835 781.536 -821.536 795 -805 795 L -715 795 C -698.464 795 -685 781.536 -685 765 L -685 675 C -685 658.464 -698.464 645 -715 645 L -805 645 Z  M -805 651 L -715 651 C -701.698 651 -691 661.698 -691 675 L -691 765 C -691 778.302 -701.698 789 -715 789 L -733 789 L -733 732 L -718.468 732 L -718 729.468 L -715 711.468 L -714.436 708 L -733 708 L -733 702 C -733 700.323 -732.811 700.206 -732.25 699.843 C -731.686 699.483 -729.988 699 -727 699 L -715 699 L -715 678.843 L -717.064 678.186 C -717.064 678.186 -726.601 675 -736 675 C -744.742 675 -751.21 677.919 -755.032 682.968 C -758.851 688.02 -760 694.638 -760 702 L -760 708 L -769 708 L -769 732 L -760 732 L -760 789 L -805 789 C -811.37 789.016 -817.484 786.493 -821.988 781.988 C -826.493 777.484 -829.016 771.37 -829 765 L -829 675 C -829 661.698 -818.302 651 -805 651 Z  M -736 681 C -729.484 681 -723.472 682.548 -721 683.25 L -721 693 L -727 693 C -730.456 693 -733.198 693.27 -735.532 694.782 C -737.86 696.294 -739 699.186 -739 702 L -739 714 L -721.561 714 L -723.625 726 L -739 726 L -739 789 L -754 789 L -754 726 L -763 726 L -763 714 L -754 714 L -754 702 C -754 695.319 -752.863 689.976 -750.25 686.532 C -747.637 683.085 -743.512 681 -736 681 Z " fill="rgb(222,222,186)"/></svg>